<?xml version="1.0" encoding="UTF-8"?>
<svg id="Layer_1" xmlns="http://www.w3.org/2000/svg" version="1.1" viewBox="0 0 24 24">
  <!-- Generator: Adobe Illustrator 29.3.1, SVG Export Plug-In . SVG Version: 2.1.0 Build 151)  -->
  <defs>
    <style>
      .st0 {
        stroke-width: 2px;
      }

      .st0, .st1, .st2 {
        fill: none;
        stroke: #000;
        stroke-linecap: round;
        stroke-linejoin: round;
      }

      .st1 {
        stroke-width: 1.6px;
      }

      .st2 {
        stroke-width: 1.5px;
      }
    </style>
  </defs>
  <path class="st0" d="M12.2,5h-6.2c-2.4,0-3.3.9-3.3,2v12.9c0,1.1.9,2,2,2h9.1c1.1,0,2-.9,2-2v-7.2"/>
  <path class="st1" d="M18.3,1.7c.7-.7,1.8-.7,2.5,0s.7,1.8,0,2.5l-7.4,7.4c-.2.2-.4.3-.7.4l-2.4.7c-.2,0-.4,0-.5-.3,0,0,0-.2,0-.2l.7-2.4c0-.3.2-.5.4-.7l7.4-7.4Z"/>
  <g>
    <line class="st2" x1="20.5" y1="17.1" x2="20.5" y2="21.8"/>
    <line class="st2" x1="18.2" y1="19.4" x2="22.8" y2="19.4"/>
  </g>
</svg>